<svg viewBox="0 0 24 24" xmlns="http://www.w3.org/2000/svg"><path d="M12 17a5 5 0 100-10 5 5 0 000 10zm0 2a7 7 0 110-14 7 7 0 010 14zm0-13V1a1 1 0 012 0v2a1 1 0 01-2 0zm0 18v-2a1 1 0 112 0v2a1 1 0 01-2 0zM5.636 6.636l1.414-1.414a1 1 0 011.414 1.414l-1.414 1.414a1 1 0 01-1.414-1.414zm11.314 11.314l1.414-1.414a1 1 0 011.414 1.414l-1.414 1.414a1 1 0 01-1.414-1.414zM4 12H2a1 1 0 110-2h2a1 1 0 110 2zm18 0h-2a1 1 0 110-2h2a1 1 0 110 2zM6.636 18.364l-1.414-1.414a1 1 0 111.414-1.414l1.414 1.414a1 1 0 11-1.414 1.414zm11.314-11.314l-1.414-1.414a1 1 0 111.414-1.414l1.414 1.414a1 1 0 11-1.414 1.414z"/></svg>